HIERARCHY
ROOT Hips
{
	OFFSET 0.000000 0.000000 0.000000
	CHANNELS 6 Xposition Yposition Zposition Zrotation Yrotation Xrotation 
	JOINT LeftUpLeg_virtual
	{
		OFFSET 0.000000 0.000000 0.000000
		CHANNELS 3 Zrotation Yrotation Xrotation
		JOINT LeftUpLeg
		{
			OFFSET 8.479694 -4.795517 -0.379053
			CHANNELS 3 Zrotation Yrotation Xrotation
			JOINT LeftLeg
			{
				OFFSET 0.485052 -32.551468 0.112863
				CHANNELS 3 Zrotation Yrotation Xrotation
				JOINT LeftFoot
				{
					OFFSET 0.438033 -32.635670 -3.012641
					CHANNELS 3 Zrotation Yrotation Xrotation
					JOINT LeftToeBase
					{
						OFFSET 0.970169 -13.225353 11.864223
						CHANNELS 3 Zrotation Yrotation Xrotation
						End Site
						{
							OFFSET 0.000000 0.000000 0.000000
						}
					}
				}
			}
		}
	}
	JOINT RightUpLeg_virtual
	{
		OFFSET 0.000000 0.000000 0.000000
		CHANNELS 3 Zrotation Yrotation Xrotation
		JOINT RightUpLeg
		{
			OFFSET -8.479694 -4.795517 -0.379053
			CHANNELS 3 Zrotation Yrotation Xrotation
			JOINT RightLeg
			{
				OFFSET -0.484100 -32.551483 0.112903
				CHANNELS 3 Zrotation Yrotation Xrotation
				JOINT RightFoot
				{
					OFFSET -0.438985 -32.635651 -3.012681
					CHANNELS 3 Zrotation Yrotation Xrotation
					JOINT RightToeBase
					{
						OFFSET -0.970169 -13.225354 11.864223
						CHANNELS 3 Zrotation Yrotation Xrotation
						End Site
						{
							OFFSET 0.000000 0.000000 0.000000
						}
					}
				}
			}
		}
	}
	JOINT Spine_virtual
	{
		OFFSET 0.000000 0.000000 0.000000
		CHANNELS 3 Zrotation Yrotation Xrotation
		JOINT Spine
		{
			OFFSET 0.000000 7.722015 1.166203
			CHANNELS 3 Zrotation Yrotation Xrotation
			JOINT Spine1
			{
				OFFSET 0.000000 12.024086 0.248766
				CHANNELS 3 Zrotation Yrotation Xrotation
				JOINT Spine2
				{
					OFFSET -0.000000 11.503036 -0.491240
					CHANNELS 3 Zrotation Yrotation Xrotation
					JOINT Neck_virtual
					{
						OFFSET 0.000000 0.000000 0.000000
						CHANNELS 3 Zrotation Yrotation Xrotation
						JOINT Neck
						{
							OFFSET 0.000000 18.430687 -3.123054
							CHANNELS 3 Zrotation Yrotation Xrotation
							JOINT Head
							{
								OFFSET -0.000000 9.051071 1.034021
								CHANNELS 3 Zrotation Yrotation Xrotation
								End Site
								{
									OFFSET 0.000000 0.000000 0.000000
								}
							}
						}
					}
					JOINT LeftShoulder_virtual
					{
						OFFSET 0.000000 0.000000 0.000000
						CHANNELS 3 Zrotation Yrotation Xrotation
						JOINT LeftShoulder
						{
							OFFSET 6.197824 13.665230 -4.064723
							CHANNELS 3 Zrotation Yrotation Xrotation
							JOINT LeftArm
							{
								OFFSET 7.778132 -0.187073 -1.709282
								CHANNELS 3 Zrotation Yrotation Xrotation
								JOINT LeftForeArm
								{
									OFFSET 21.954697 0.000000 -2.041093
									CHANNELS 3 Zrotation Yrotation Xrotation
									JOINT LeftHand
									{
										OFFSET 22.992908 0.000000 -0.870901
										CHANNELS 3 Zrotation Yrotation Xrotation
										End Site
										{
											OFFSET 0.000000 0.000000 0.000000
										}
									}
								}
							}
						}
					}
					JOINT RightShoulder_virtual
					{
						OFFSET 0.000000 0.000000 0.000000
						CHANNELS 3 Zrotation Yrotation Xrotation
						JOINT RightShoulder
						{
							OFFSET -6.197824 13.665230 -4.064723
							CHANNELS 3 Zrotation Yrotation Xrotation
							JOINT RightArm
							{
								OFFSET -7.778132 -0.187073 -1.709282
								CHANNELS 3 Zrotation Yrotation Xrotation
								JOINT RightForeArm
								{
									OFFSET -21.954697 0.000000 -2.041093
									CHANNELS 3 Zrotation Yrotation Xrotation
									JOINT RightHand
									{
										OFFSET -22.992908 0.000000 -0.870901
										CHANNELS 3 Zrotation Yrotation Xrotation
										End Site
										{
											OFFSET 0.000000 0.000000 0.000000
										}
									}
								}
							}
						}
					}
				}
			}
		}
	}
}
MOTION
Frames: 7
Frame Time: 0.033333
-8.184754 55.524231 -13.021162 -179.979788 10.150977 -179.985812 3.212115 -0.800902 -17.525395 5.881594 6.423220 -59.453846 12.020065 1.674862 75.722790 1.767834 -14.579450 -2.391287 0.000000 0.000000 0.000000 1.697606 4.746970 -15.206602 -1.253066 3.436347 -60.214449 0.247962 3.149679 76.908476 6.194775 5.995006 -2.708256 0.000000 0.000000 0.000000 2.310380 7.215479 -27.283729 2.872910 -3.372583 -1.819969 0.508958 2.614663 8.530847 -0.023074 -0.031141 0.022226 -0.076282 4.508432 13.974039 16.407086 3.647928 5.015098 0.000000 0.000000 0.000000 2.606126 4.788947 10.276428 4.109660 -10.100045 -3.974161 18.558519 -28.746671 -66.718435 -100.128845 -82.656607 137.025534 0.000000 0.000000 0.000000 -3.639469 6.740172 8.853675 28.971521 -16.633327 -24.483862 -8.386303 -0.442396 -60.168502 173.549684 39.881871 174.736948 0.000000 0.000000 0.000000 
-8.250504 55.574005 -13.176120 -179.973272 10.195457 -179.982684 3.198668 -0.909744 -16.823803 6.037582 6.320545 -59.713209 11.985386 1.587966 76.550363 1.716277 -14.767709 -3.495592 0.000000 0.000000 0.000000 1.812994 4.611839 -14.583082 -1.508609 3.332714 -60.616973 0.434799 3.444514 77.603564 6.323041 5.978733 -3.511341 0.000000 0.000000 0.000000 2.411055 7.073313 -26.696768 2.801701 -3.079554 -1.671155 0.419856 2.648176 8.607455 0.029103 0.043697 0.026811 -0.273950 4.443617 14.044478 15.937374 3.745554 4.720745 0.000000 0.000000 0.000000 2.380681 4.724497 10.335143 3.922789 -10.713272 -3.669337 13.917313 -27.530017 -62.141799 -95.497854 -82.584152 132.753729 0.000000 0.000000 0.000000 -3.785864 6.685941 8.975632 28.349438 -16.625787 -23.587753 -2.672285 -3.725913 -57.672396 173.907203 41.618146 174.834251 0.000000 0.000000 0.000000 
-8.341854 55.604408 -13.330536 -179.890408 10.283383 -179.954748 3.384543 -1.018780 -15.971139 6.197842 6.338780 -59.931427 11.870666 1.381137 77.502416 1.783264 -14.878666 -4.745768 0.000000 0.000000 0.000000 2.011259 4.463804 -13.907030 -1.749143 3.356773 -61.096527 0.650409 3.704368 77.978364 6.455658 5.976124 -4.074198 0.000000 0.000000 0.000000 2.595904 6.962032 -26.048036 2.738047 -2.576785 -1.492434 0.290242 2.509381 8.686740 -0.043142 0.014788 0.018919 -0.401599 4.385093 14.136785 15.268821 3.825805 4.369701 0.000000 0.000000 0.000000 2.256300 4.690776 10.366335 3.725194 -11.437248 -3.262028 8.787534 -25.875506 -56.781422 -92.238153 -82.391090 129.805819 0.000000 0.000000 0.000000 -3.832256 6.710004 9.094112 27.722432 -16.424264 -22.555211 2.940456 -7.294716 -54.681231 174.237675 43.554248 174.966401 0.000000 0.000000 0.000000 
-8.429100 55.622807 -13.459261 -179.847186 10.183040 -179.940255 3.546009 -1.149276 -15.052603 6.294389 6.263257 -60.251599 11.864334 1.296779 78.352822 1.904513 -14.882934 -5.494343 0.000000 0.000000 0.000000 2.199631 4.224380 -13.207906 -2.036274 3.398743 -61.636447 0.859491 3.991957 78.088562 6.679076 6.072938 -4.463506 0.000000 0.000000 0.000000 2.788125 6.774398 -25.329062 2.605307 -2.147143 -1.307438 0.178166 2.452434 8.757117 -0.054967 0.010512 0.020769 -0.521313 4.308498 14.210051 14.590385 3.942373 3.889309 0.000000 0.000000 0.000000 2.093367 4.638934 10.443173 3.473293 -12.271132 -2.788336 3.664685 -23.893030 -51.014345 -89.549476 -82.192393 127.337648 0.000000 0.000000 0.000000 -3.930399 6.614163 9.188955 26.932612 -16.121342 -21.527530 8.192938 -10.851712 -51.085300 174.383677 45.585987 174.964025 0.000000 0.000000 0.000000 
-8.493856 55.627254 -13.564752 -179.912893 10.045596 -179.812544 3.646047 -1.351101 -14.249767 6.309198 6.316833 -60.760407 11.837341 1.325427 78.936230 2.119378 -14.797508 -5.854929 0.000000 0.000000 0.000000 2.372981 3.959512 -12.599224 -2.253467 3.309094 -62.428865 0.825272 4.185453 78.122980 6.143876 5.356224 -4.851728 0.000000 0.000000 0.000000 2.824933 6.837196 -24.637450 2.369041 -1.803712 -1.152834 0.046929 2.350696 8.810252 -0.004762 -0.020127 0.032798 -0.642997 4.293042 14.281883 13.835936 4.196985 3.200019 0.000000 0.000000 0.000000 1.941093 4.551177 10.572066 3.211290 -13.135621 -2.277088 -1.177899 -21.570245 -45.272782 -87.466658 -81.931500 125.360691 0.000000 0.000000 0.000000 -3.990186 6.504891 9.291052 26.192305 -15.609142 -20.309940 12.920564 -13.989774 -47.286609 174.504093 47.658379 174.990799 0.000000 0.000000 0.000000 
-8.521948 55.630665 -13.673388 -179.920310 9.882357 -179.928793 3.678590 -1.532037 -13.418020 6.339840 6.318976 -61.225529 11.767032 1.352245 79.352591 2.279531 -14.790701 -6.249320 0.000000 0.000000 0.000000 2.593305 3.749863 -11.865629 -2.431574 3.295697 -63.123529 0.968201 4.373774 78.360561 6.174414 5.268645 -5.127852 0.000000 0.000000 0.000000 3.020328 6.531435 -23.740317 2.169713 -1.480307 -0.821418 -0.027474 2.302116 8.878466 -0.023759 -0.021886 0.021052 -0.709834 4.295637 14.327469 12.929576 4.381347 2.441018 0.000000 0.000000 0.000000 1.838592 4.653302 10.594625 2.981886 -13.926530 -1.725698 -5.476421 -19.039204 -39.917244 -85.439096 -81.659740 123.304831 0.000000 0.000000 0.000000 -4.055403 6.541792 9.418090 25.285248 -14.838420 -18.925409 17.111572 -16.692685 -43.444525 174.669398 49.651893 175.086585 0.000000 0.000000 0.000000 
-8.522157 55.642479 -13.823769 -179.886842 9.743253 -179.990566 3.684601 -1.630024 -12.708637 6.445649 6.227462 -61.791711 11.723801 1.511526 79.547621 2.564020 -14.727145 -6.144295 0.000000 0.000000 0.000000 2.794583 3.582917 -11.223264 -2.530032 3.286746 -63.646913 1.103037 4.476676 78.516180 6.154504 5.176506 -5.368818 0.000000 0.000000 0.000000 3.086659 6.512806 -22.867883 1.931347 -1.231725 -0.456754 -0.067850 2.247620 8.952881 -0.020414 -0.054488 -0.017015 -0.778005 4.269249 14.423053 11.963269 4.613347 1.361070 0.000000 0.000000 0.000000 1.753399 4.590395 10.699196 2.812327 -14.833436 -1.208805 -8.958352 -16.547677 -35.382166 -83.758139 -81.343107 121.446829 0.000000 0.000000 0.000000 -4.103136 6.498519 9.505574 24.364422 -14.011600 -17.720525 20.982585 -19.000106 -39.975673 174.742904 51.503472 175.077023 0.000000 0.000000 0.000000 
